<svg width="882" height="1538" viewBox="0 0 882 1538" fill="none" xmlns="http://www.w3.org/2000/svg">
<g filter="url(#filter0_dfg_3_3)">
<path d="M777.388 16.0198C777.122 13.5487 774.904 11.7607 772.433 12.0261C769.962 12.2915 768.174 14.5099 768.439 16.981L772.913 16.5004L777.388 16.0198ZM295.008 241.5L295.499 245.974L295.008 241.5ZM134.588 283.389L132.909 279.214L134.588 283.389ZM12.5928 397L8.23643 395.872V395.872L12.5928 397ZM40.5084 477L38.0818 480.79V480.79L40.5084 477ZM207.008 477L207.706 481.446L207.008 477ZM816.009 432.14L812.794 435.289L816.009 432.14ZM608.117 1452.98L605.019 1456.24V1456.24L608.117 1452.98ZM592.509 1499.5L591.119 1495.22L592.509 1499.5ZM415.085 1493.99L417.095 1489.96L417.001 1489.92L416.905 1489.87L415.085 1493.99ZM170.008 1439L169.008 1434.61L170.008 1439ZM864.695 563.5L860.197 563.369L864.695 563.5ZM665.195 816L665.668 820.475L665.195 816ZM457.195 803L457.602 798.519V798.519L457.195 803ZM335.695 1039.5L335.204 1043.97L335.695 1039.5ZM435.695 1049L437.661 1044.95L435.695 1049ZM772.913 16.5004L768.439 16.981C775.405 81.8322 779.103 115.966 775.703 139.877C772.41 163.032 762.451 176.527 740.246 199.901L743.509 203L746.771 206.1C769.231 182.458 780.905 167.224 784.613 141.144C788.215 115.819 784.283 80.2109 777.388 16.0198L772.913 16.5004ZM743.509 203L740.246 199.901C718.905 222.365 683.692 235.161 647.921 242.258C612.32 249.32 577.002 250.582 556.266 250.582V255.082V259.582C577.287 259.582 613.258 258.31 649.673 251.086C685.918 243.895 723.448 230.651 746.771 206.1L743.509 203ZM556.266 255.082V250.582C546.108 250.582 530.463 249.143 511.028 247.089C491.702 245.046 468.762 242.41 444.341 240.089C395.533 235.451 340.261 232.01 294.518 237.027L295.008 241.5L295.499 245.974C340.256 241.065 394.734 244.415 443.49 249.049C467.851 251.364 490.647 253.984 510.082 256.039C529.406 258.082 545.545 259.582 556.266 259.582V255.082ZM295.008 241.5L294.518 237.027C228.098 244.311 182.936 259.098 132.909 279.214L134.588 283.389L136.266 287.565C185.813 267.641 230.15 253.14 295.499 245.974L295.008 241.5ZM134.588 283.389L132.909 279.214C113.368 287.072 84.4976 307.783 59.6304 330.341C47.1367 341.675 35.501 353.612 26.422 364.832C17.4466 375.925 10.5939 386.768 8.23643 395.872L12.5928 397L16.9491 398.128C18.7994 390.983 24.6026 381.389 33.4185 370.493C42.1307 359.726 53.4216 348.125 65.6773 337.007C90.3088 314.662 118.228 294.818 136.266 287.565L134.588 283.389ZM12.5928 397L8.23643 395.872C3.83052 412.887 2.9819 428.884 7.52811 443.368C12.1044 457.947 21.9875 470.485 38.0818 480.79L40.5084 477L42.9349 473.211C28.3113 463.847 19.9569 452.912 16.115 440.673C12.2431 428.337 12.7956 414.168 16.9491 398.128L12.5928 397ZM40.5084 477L38.0818 480.79C62.1231 496.184 97.6925 497.155 129.99 494.109C162.342 491.057 193.375 483.694 207.706 481.446L207.008 477L206.311 472.555C190.84 474.982 161.269 482.118 129.144 485.148C96.9647 488.183 64.1852 486.817 42.9349 473.211L40.5084 477ZM207.008 477L207.706 481.446C233.55 477.392 248.613 472.594 267.267 466.809C285.809 461.06 308.109 454.266 348.724 446.054L347.832 441.643L346.94 437.232C305.927 445.525 283.315 452.41 264.602 458.213C246.001 463.981 231.467 468.609 206.311 472.555L207.008 477ZM347.832 441.643L348.724 446.054C389.684 437.771 435.881 423.667 481.733 411.801C527.828 399.871 573.818 390.124 615.305 390.124V385.624V381.124C572.597 381.124 525.664 391.134 479.478 403.088C433.05 415.104 387.608 429.009 346.94 437.232L347.832 441.643ZM615.305 385.624V390.124C657.194 390.124 698.957 393.487 734.173 400.906C769.593 408.369 797.598 419.779 812.794 435.289L816.009 432.14L819.223 428.99C802.076 411.49 771.826 399.642 736.029 392.1C700.028 384.515 657.61 381.124 615.305 381.124V385.624ZM540.351 1351.44L535.876 1351.92C540.319 1393.93 552.575 1415.67 566.898 1429.29C573.96 1436.01 581.361 1440.58 587.996 1444.56C594.769 1448.62 600.455 1451.91 605.019 1456.24L608.117 1452.98L611.216 1449.71C605.768 1444.54 599.069 1440.7 592.623 1436.84C586.038 1432.89 579.385 1428.74 573.099 1422.77C560.727 1411 549.11 1391.48 544.826 1350.97L540.351 1351.44ZM608.117 1452.98L605.019 1456.24C611.848 1462.72 613.5 1470.58 611.228 1477.56C608.916 1484.67 602.282 1491.6 591.119 1495.22L592.509 1499.5L593.899 1503.78C607.235 1499.45 616.414 1490.71 619.786 1480.35C623.198 1469.86 620.404 1458.43 611.216 1449.71L608.117 1452.98ZM592.509 1499.5L591.119 1495.22C570.217 1502.01 536.682 1505.75 503.102 1505.19C469.429 1504.62 436.695 1499.75 417.095 1489.96L415.085 1493.99L413.075 1498.01C434.546 1508.74 468.962 1513.62 502.952 1514.19C537.035 1514.76 571.676 1511 593.899 1503.78L592.509 1499.5ZM415.085 1493.99L416.905 1489.87C283.22 1430.76 218.743 1423.27 169.008 1434.61L170.008 1439L171.009 1443.39C217.79 1432.72 279.991 1439.18 413.265 1498.1L415.085 1493.99ZM170.008 1439L169.008 1434.61C148.111 1439.38 129.775 1456.32 116.809 1475.39C103.837 1494.48 95.5084 1516.78 95.5084 1533.5H100.008H104.508C104.508 1519.21 111.876 1498.66 124.253 1480.45C136.636 1462.23 153.299 1447.43 171.009 1443.39L170.008 1439ZM816.009 432.14L812.794 435.289C824.468 447.204 836.628 457.839 845.861 476.167C855.052 494.413 861.442 520.614 860.197 563.369L864.695 563.5L869.193 563.631C870.467 519.887 863.958 492.088 853.898 472.118C843.88 452.231 830.437 440.436 819.223 428.99L816.009 432.14ZM864.695 563.5L860.197 563.369C858.701 614.74 854.84 644.802 847.992 668.83C841.138 692.882 831.26 711.06 817.177 738.973L821.195 741L825.213 743.027C839.13 715.44 849.502 696.369 856.648 671.296C863.8 646.198 867.689 615.26 869.193 563.631L864.695 563.5ZM821.195 741L817.177 738.973C790.396 792.058 735.953 804.001 664.722 811.525L665.195 816L665.668 820.475C736.437 813 795.994 800.943 825.213 743.027L821.195 741ZM665.195 816L664.722 811.525C637.73 814.377 605.341 812.913 569.876 809.817C552.168 808.271 533.762 806.326 514.935 804.325C496.122 802.326 476.893 800.273 457.602 798.519L457.195 803L456.788 807.482C475.997 809.228 495.156 811.274 513.984 813.275C532.799 815.274 551.288 817.229 569.093 818.783C604.654 821.887 637.765 823.423 665.668 820.475L665.195 816ZM457.195 803L457.602 798.519C404.745 793.714 358.378 800.11 294.607 833.514L296.695 837.5L298.783 841.487C361.012 808.89 405.645 802.833 456.788 807.482L457.195 803ZM296.695 837.5L294.607 833.514C231.241 866.706 202.536 896.66 196.735 939.902L201.195 940.5L205.655 941.099C210.854 902.34 236.149 874.295 298.783 841.487L296.695 837.5ZM201.195 940.5L196.735 939.902C193.842 961.467 198.889 980.079 206.759 994.333C214.568 1008.48 225.302 1018.59 234.182 1023.03L236.195 1019L238.207 1014.98C231.264 1011.5 221.748 1002.86 214.638 989.983C207.589 977.215 203.048 960.533 205.655 941.099L201.195 940.5ZM236.195 1019L234.182 1023.03C265.088 1038.48 289.118 1038.92 335.204 1043.97L335.695 1039.5L336.186 1035.03C289.272 1029.88 267.302 1029.52 238.207 1014.98L236.195 1019ZM335.695 1039.5L335.204 1043.97C355.903 1046.25 376.81 1046.5 394.317 1047.25C403.136 1047.62 411.076 1048.11 417.855 1049.02C424.691 1049.94 430.002 1051.24 433.729 1053.05L435.695 1049L437.661 1044.95C432.638 1042.51 426.198 1041.06 419.051 1040.1C411.846 1039.14 403.567 1038.63 394.698 1038.25C376.829 1037.5 356.486 1037.26 336.186 1035.03L335.695 1039.5ZM435.695 1049L433.729 1053.05C446.768 1059.38 452.019 1068.2 452.926 1070.92L457.195 1069.5L461.464 1068.08C459.705 1062.8 452.622 1052.22 437.661 1044.95L435.695 1049Z" fill="#211E1E"/>
</g>
<defs>
<filter id="filter0_dfg_3_3" x="0" y="0" width="881.352" height="1538" filterUnits="userSpaceOnUse" color-interpolation-filters="sRGB">
<feFlood flood-opacity="0" result="BackgroundImageFix"/>
<feColorMatrix in="SourceAlpha" type="matrix" values="0 0 0 0 0 0 0 0 0 0 0 0 0 0 0 0 0 0 127 0" result="hardAlpha"/>
<feOffset dx="8" dy="-8"/>
<feGaussianBlur stdDeviation="2"/>
<feComposite in2="hardAlpha" operator="out"/>
<feColorMatrix type="matrix" values="0 0 0 0 0 0 0 0 0 0 0 0 0 0 0 0 0 0 0.25 0"/>
<feBlend mode="normal" in2="BackgroundImageFix" result="effect1_dropShadow_3_3"/>
<feBlend mode="normal" in="SourceGraphic" in2="effect1_dropShadow_3_3" result="shape"/>
<feGaussianBlur stdDeviation="2.25" result="effect2_foregroundBlur_3_3"/>
<feTurbulence type="fractalNoise" baseFrequency="0.27777779102325439 0.27777779102325439" numOctaves="3" seed="3880" />
<feDisplacementMap in="effect2_foregroundBlur_3_3" scale="4.5999999046325684" xChannelSelector="R" yChannelSelector="G" result="displacedImage" width="100%" height="100%" />
<feMerge result="effect3_texture_3_3">
<feMergeNode in="displacedImage"/>
</feMerge>
</filter>
</defs>
</svg>
